<svg width="38" height="49" viewBox="0 0 38 49" fill="none" xmlns="http://www.w3.org/2000/svg">
<path d="M6.83999 1.28998L10.16 0.28998C11.6713 -0.165972 13.2969 -0.0563553 14.7333 0.598367C16.1697 1.25309 17.3188 2.40817 17.966 3.84798L20.032 8.44398C20.5887 9.6821 20.7438 11.0635 20.4755 12.3942C20.2072 13.7249 19.529 14.9383 18.536 15.864L14.926 19.23C14.8814 19.2716 14.8448 19.3211 14.818 19.376C14.44 20.148 15.014 22.21 16.812 25.326C18.84 28.838 20.406 30.226 21.132 30.012L25.87 28.562C27.1676 28.1657 28.5566 28.1855 29.8424 28.6184C31.1282 29.0513 32.2463 29.8757 33.04 30.976L35.976 35.042C36.8978 36.3187 37.3247 37.8865 37.1776 39.4543C37.0305 41.0221 36.3192 42.4831 35.176 43.566L32.65 45.956C31.7716 46.788 30.7049 47.3952 29.541 47.7257C28.3772 48.0562 27.1506 48.1002 25.966 47.854C18.932 46.39 12.63 40.726 7.00599 30.986C1.37999 21.24 -0.374006 12.94 1.88599 6.11398C2.26431 4.97119 2.91214 3.93625 3.77475 3.09661C4.63736 2.25698 5.68941 1.63731 6.84199 1.28998H6.83999ZM7.70799 4.16198C7.01641 4.37028 6.38513 4.742 5.8675 5.24571C5.34986 5.74942 4.96107 6.37034 4.73399 7.05598C2.78599 12.938 4.36399 20.41 9.60399 29.486C14.84 38.556 20.516 43.656 26.576 44.916C27.2871 45.0638 28.0234 45.0374 28.722 44.8389C29.4207 44.6403 30.0609 44.2757 30.588 43.776L33.112 41.388C33.7278 40.805 34.111 40.0184 34.1905 39.1742C34.2699 38.3299 34.0402 37.4856 33.544 36.798L30.608 32.73C30.1807 32.1376 29.5788 31.6938 28.8866 31.4607C28.1944 31.2275 27.4466 31.2168 26.748 31.43L21.998 32.884C19.37 33.666 16.898 31.476 14.214 26.824C11.94 22.888 11.152 20.044 12.124 18.058C12.312 17.674 12.568 17.328 12.88 17.036L16.49 13.67C17.0249 13.1715 17.3902 12.5181 17.5348 11.8014C17.6793 11.0847 17.5958 10.3408 17.296 9.67398L15.23 5.07998C14.8815 4.3045 14.2627 3.68238 13.489 3.32979C12.7154 2.97721 11.8399 2.91827 11.026 3.16398L7.70599 4.16398L7.70799 4.16198Z" fill="#D27C2C"/>
</svg>
