<svg width="50" height="36" viewBox="0 0 50 36" fill="none" xmlns="http://www.w3.org/2000/svg">
<path d="M46 0.5H4C3.07174 0.5 2.1815 0.868749 1.52513 1.52513C0.868749 2.1815 0.5 3.07174 0.5 4V32C0.5 32.9283 0.868749 33.8185 1.52513 34.4749C2.1815 35.1312 3.07174 35.5 4 35.5H46C46.9283 35.5 47.8185 35.1312 48.4749 34.4749C49.1312 33.8185 49.5 32.9283 49.5 32V4C49.5 3.07174 49.1312 2.1815 48.4749 1.52513C47.8185 0.868749 46.9283 0.5 46 0.5ZM42.15 4L25 15.865L7.85 4H42.15ZM4 32V5.5925L24.0025 19.435C24.2954 19.6382 24.6435 19.7471 25 19.7471C25.3565 19.7471 25.7046 19.6382 25.9975 19.435L46 5.5925V32H4Z" fill="#D27C2C"/>
</svg>
