<svg width="32" height="32" viewBox="0 0 32 32" fill="none" xmlns="http://www.w3.org/2000/svg">
<path d="M13.6666 27C16.6249 26.9994 19.498 26.0091 21.8283 24.1867L29.155 31.5133L31.5116 29.1567L24.185 21.83C26.0083 19.4994 26.9993 16.6257 27 13.6667C27 6.31501 21.0183 0.333344 13.6666 0.333344C6.31498 0.333344 0.333313 6.31501 0.333313 13.6667C0.333313 21.0183 6.31498 27 13.6666 27ZM13.6666 3.66668C19.1816 3.66668 23.6666 8.15168 23.6666 13.6667C23.6666 19.1817 19.1816 23.6667 13.6666 23.6667C8.15165 23.6667 3.66665 19.1817 3.66665 13.6667C3.66665 8.15168 8.15165 3.66668 13.6666 3.66668Z" fill="#D27C2C"/>
</svg>
