<svg width="42" height="33" viewBox="0 0 42 33" fill="none" xmlns="http://www.w3.org/2000/svg">
<path d="M39 0H3C2.20435 0 1.44129 0.347677 0.87868 0.966547C0.31607 1.58542 0 2.42479 0 3.3V29.7C0 30.5752 0.31607 31.4146 0.87868 32.0335C1.44129 32.6523 2.20435 33 3 33H39C39.7956 33 40.5587 32.6523 41.1213 32.0335C41.6839 31.4146 42 30.5752 42 29.7V3.3C42 2.42479 41.6839 1.58542 41.1213 0.966547C40.5587 0.347677 39.7956 0 39 0V0ZM35.7 3.3L21 14.487L6.3 3.3H35.7ZM3 29.7V4.8015L20.145 17.853C20.3961 18.0446 20.6944 18.1473 21 18.1473C21.3056 18.1473 21.6039 18.0446 21.855 17.853L39 4.8015V29.7H3Z" fill="#765C4D"/>
</svg>
