<svg width="34" height="41" viewBox="0 0 34 41" fill="none" xmlns="http://www.w3.org/2000/svg">
<path d="M18.0625 0.520508C8.97812 0.520508 0 5.99785 0 14.8625C0 20.5 3.50625 23.7031 5.63125 23.7031C6.50781 23.7031 7.0125 21.493 7.0125 20.8684C7.0125 20.1236 4.91406 18.5381 4.91406 15.4391C4.91406 9.00078 10.3328 4.43633 17.3453 4.43633C23.375 4.43633 27.8375 7.53535 27.8375 13.2289C27.8375 17.4811 25.9516 25.4568 19.8422 25.4568C17.6375 25.4568 15.7516 24.0154 15.7516 21.9494C15.7516 18.9225 18.0891 15.9916 18.0891 12.8686C18.0891 7.56738 9.775 8.52832 9.775 14.9346C9.775 16.2799 9.96094 17.7693 10.625 18.9945C9.40312 23.7512 6.90625 30.8381 6.90625 35.7389C6.90625 37.2523 7.14531 38.7418 7.30469 40.2553C7.60573 40.5596 7.45521 40.5275 7.91562 40.3754C12.3781 34.85 12.2187 33.7689 14.2375 26.5379C15.3266 28.4117 18.1422 29.4207 20.3734 29.4207C29.7766 29.4207 34 21.1326 34 13.6613C34 5.70957 26.4031 0.520508 18.0625 0.520508Z" fill="#765C4D"/>
</svg>
