<svg width="42" height="35" viewBox="0 0 42 35" fill="none" xmlns="http://www.w3.org/2000/svg">
<path d="M41.7865 4.65924C40.2498 5.32983 38.599 5.78294 36.8636 5.98774C38.6542 4.93254 39.9939 3.27177 40.6326 1.31533C38.9502 2.29945 37.109 2.99217 35.1889 3.36336C33.8977 2.00562 32.1874 1.10568 30.3237 0.803274C28.4599 0.500868 26.5469 0.812912 24.8817 1.69096C23.2164 2.569 21.8921 3.96393 21.1143 5.65916C20.3366 7.35438 20.1489 9.25507 20.5804 11.0661C17.1715 10.8976 13.8367 10.025 10.7925 8.50501C7.74818 6.98504 5.06245 4.85165 2.90956 2.24329C2.17343 3.49385 1.75015 4.94379 1.75015 6.48797C1.74933 7.87808 2.09693 9.2469 2.76211 10.473C3.42728 11.6991 4.38948 12.7445 5.56331 13.5165C4.20197 13.4739 2.87068 13.1116 1.68022 12.4599V12.5686C1.68008 14.5183 2.36488 16.408 3.61842 17.9171C4.87196 19.4261 6.61703 20.4616 8.55752 20.8477C7.29466 21.1843 5.97064 21.2339 4.68547 20.9927C5.23296 22.6703 6.29943 24.1373 7.73557 25.1883C9.17171 26.2394 10.9056 26.8218 12.6946 26.8541C9.65773 29.2019 5.90724 30.4755 2.04644 30.4699C1.36254 30.47 0.679221 30.4307 0 30.3521C3.91893 32.8336 8.48085 34.1506 13.1399 34.1454C28.9115 34.1454 37.5335 21.2809 37.5335 10.1237C37.5335 9.76119 37.5243 9.39508 37.5077 9.0326C39.1848 7.83817 40.6324 6.3591 41.7828 4.66468L41.7865 4.65924V4.65924Z" fill="#765C4D"/>
</svg>
