<svg width="42" height="46" viewBox="0 0 42 46" fill="none" xmlns="http://www.w3.org/2000/svg">
<g clip-path="url(#clip0_25_41)">
<path d="M41.1256 12.4717C40.8878 11.5426 40.4245 10.7014 39.7851 10.0375C39.1276 9.35328 38.3217 8.86383 37.4436 8.61536C34.1571 7.66661 20.9901 7.66661 20.9901 7.66661C15.5009 7.59821 10.0131 7.89905 4.55756 8.56744C3.67939 8.83427 2.87505 9.33466 2.21606 10.0241C1.56856 10.7064 1.09956 11.5479 0.854561 12.4698C0.266024 15.9423 -0.0199277 19.4682 0.000561272 22.9999C-0.0204387 26.5285 0.264811 30.0533 0.854561 33.5301C1.09431 34.4482 1.56156 35.2858 2.21081 35.9624C2.86006 36.6389 3.66856 37.1277 4.55756 37.3864C7.88781 38.3333 20.9901 38.3333 20.9901 38.3333C26.4862 38.4018 31.981 38.1009 37.4436 37.4324C38.3217 37.184 39.1276 36.6945 39.7851 36.0103C40.4326 35.3337 40.8928 34.4923 41.1238 33.5761C41.7277 30.1049 42.0214 26.5776 42.0006 23.044C42.046 19.4955 41.7527 15.9515 41.1256 12.4698V12.4717ZM16.8041 29.5626V16.4392L27.7591 23.0019L16.8041 29.5626Z" fill="#765C4D"/>
</g>
<defs>
<clipPath id="clip0_25_41">
<rect width="42" height="46" fill="white"/>
</clipPath>
</defs>
</svg>
